#!OML:ASF H:\LiuWeirdWalks\Patient Classification 1\Patient 1\Session 1\male.ASF
:FULLY-SPECIFIED
:DEGREES
890
root 1.03587 18.247 -1.72669 3.81147 6.45314 7.2571
lowerback 12.2224 -0.611936 3.69226
upperback 0.608266 0.284364 8.50326
thorax -6.28055 0.177215 6.96454
lowerneck -19.7283 0.365018 7.53834
upperneck 13.7627 2.43444 -22.204
head 7.99651 -0.567889 -8.66179
rclavicle -7.95139e-015 -9.85972e-014
rhumerus -13.5025 -30.8495 -17.6765
rradius 31.2136
rwrist 0.956309
rhand -23.4336 -5.57944
rfingers 7.12502
rthumb 3.02433 -35.5377
lclavicle -7.95139e-015 -9.85972e-014
lhumerus -22.1947 26.9393 21.0039
lradius 40.46
lwrist 9.91237
lhand -20.0668 -4.08398
lfingers 7.12502
lthumb 6.27532 25.8031
rfemur -18.3917 -2.94969 10.6869
rtibia 32.3171
rfoot -10.0119 -18.315
rtoes -1.18858
lfemur -11.0183 2.32005 -23.3371
ltibia 49.9467
lfoot -5.66775 6.3772
ltoes -16.5475
891
root 1.0418 18.2422 -1.67286 3.78414 6.47839 7.39264
lowerback 12.2769 -0.614289 3.89403
upperback 0.594809 0.321616 8.57756
thorax -6.32945 0.191662 6.9266
lowerneck -19.6636 0.340746 7.46032
upperneck 13.7805 2.46294 -22.3955
head 8.00122 -0.573326 -8.71634
rclavicle 2.22639e-014 6.67916e-014
rhumerus -13.6372 -30.8658 -17.8047
rradius 31.197
rwrist 0.987243
rhand -23.3655 -5.59715
rfingers 7.12502
rthumb 3.09016 -35.5545
lclavicle 2.22639e-014 6.67916e-014
lhumerus -22.1575 26.9175 20.8435
lradius 40.4508
lwrist 9.94139
lhand -20.1002 -4.08201
lfingers 7.12502
lthumb 6.24306 25.806
rfemur -18.2362 -2.63086 10.5459
rtibia 32.5264
rfoot -10.2692 -18.7582
rtoes -1.06782
lfemur -11.5013 2.18802 -23.5937
ltibia 49.734
lfoot -6.0255 6.56981
ltoes -16.5661
892
root 1.04877 18.2369 -1.61914 3.75461 6.50275 7.52693
lowerback 12.3291 -0.610947 4.09812
upperback 0.586786 0.36602 8.64715
thorax -6.37166 0.209285 6.88058
lowerneck -19.623 0.325025 7.41882
upperneck 13.7803 2.49153 -22.5998
head 8.00516 -0.578195 -8.78241
rclavicle -6.36111e-015 -2.54444e-014
rhumerus -13.7888 -30.927 -17.9133
rradius 31.1602
rwrist 1.04367
rhand -23.2918 -5.61318
rfingers 7.12502
rthumb 3.1613 -35.5695
lclavicle -6.36111e-015 -2.54444e-014
lhumerus -22.1007 26.8838 20.7052
lradius 40.4687
lwrist 9.98868
lhand -20.134 -4.10211
lfingers 7.12502
lthumb 6.21042 25.7869
rfemur -18.0792 -2.36024 10.4008
rtibia 32.7285
rfoot -10.5078 -19.143
rtoes -0.991317
lfemur -11.9668 2.05416 -23.8466
ltibia 49.4589
lfoot -6.34398 6.77103
ltoes -16.6674
893
root 1.0565 18.2315 -1.56502 3.72199 6.52395 7.65653
lowerback 12.3686 -0.603919 4.2989
upperback 0.582608 0.413478 8.71663
thorax -6.40274 0.228329 6.83528
lowerneck -19.577 0.288798 7.32914
upperneck 13.7908 2.49744 -22.7535
head 8.0059 -0.592283 -8.82332
rclavicle 2.62396e-014 -3.18055e-014
rhumerus -13.9558 -30.996 -18
rradius 31.1121
rwrist 1.10473
rhand -23.2146 -5.60918
rfingers 7.12502
rthumb 3.23587 -35.5644
lclavicle 2.62396e-014 -3.18055e-014
lhumerus -22.0445 26.8484 20.5863
lradius 40.5031
lwrist 10.0181
lhand -20.1569 -4.226
lfingers 7.12502
lthumb 6.18831 25.6636
rfemur -17.9152 -2.12606 10.2594
rtibia 32.9193
rfoot -10.7246 -19.491
rtoes -0.952896
lfemur -12.408 1.9311 -24.0883
ltibia 49.1183
lfoot -6.64489 6.97307
ltoes -16.8663
894
root 1.06441 18.2261 -1.51022 3.68215 6.53629 7.78878
lowerback 12.3982 -0.587265 4.48169
upperback 0.584036 0.469517 8.78279
thorax -6.4228 0.251905 6.79459
lowerneck -19.5338 0.226748 7.20012
upperneck 13.8318 2.47371 -22.8568
head 8.00998 -0.619778 -8.8429
rclavicle -3.97569e-014 3.49861e-014
rhumerus -14.1513 -31.0794 -18.0548
rradius 31.053
rwrist 1.167
rhand -23.1392 -5.57657
rfingers 7.12502
rthumb 3.30871 -35.5306
lclavicle -3.97569e-014 3.49861e-014
lhumerus -21.9711 26.829 20.4924
lradius 40.5336
lwrist 10.0048
lhand -20.1709 -4.39368
lfingers 7.12502
lthumb 6.17484 25.4963
rfemur -17.7341 -1.9048 10.1181
rtibia 33.0961
rfoot -10.9252 -19.8228
rtoes -0.930532
lfemur -12.8139 1.83546 -24.3223
ltibia 48.7101
lfoot -6.92062 7.17839
ltoes -17.1176
895
root 1.07204 18.221 -1.45464 3.64048 6.53364 7.92417
lowerback 12.4227 -0.561259 4.63361
upperback 0.586857 0.532818 8.84669
thorax -6.43909 0.279854 6.76765
lowerneck -19.511 0.168724 7.08712
upperneck 13.887 2.45288 -22.958
head 8.02299 -0.646573 -8.86597
rclavicle -1.43125e-014 2.54444e-014
rhumerus -14.3543 -31.2093 -18.0918
rradius 30.9669
rwrist 1.27233
rhand -23.0869 -5.49374
rfingers 7.12502
rthumb 3.35921 -35.447
lclavicle -1.43125e-014 2.54444e-014
lhumerus -21.899 26.8099 20.4166
lradius 40.5764
lwrist 9.97672
lhand -20.2117 -4.50906
lfingers 7.12502
lthumb 6.1354 25.3821
rfemur -17.5404 -1.68402 9.97982
rtibia 33.2539
rfoot -11.1113 -20.1488
rtoes -0.907666
lfemur -13.191 1.7817 -24.5482
ltibia 48.2343
lfoot -7.17879 7.38944
ltoes -17.3728
896
root 1.07896 18.2165 -1.39817 3.5996 6.5146 8.04484
lowerback 12.441 -0.52646 4.77044
upperback 0.586353 0.605366 8.91092
thorax -6.45615 0.312763 6.74804
lowerneck -19.4937 0.11493 6.98693
upperneck 13.9549 2.434 -23.0451
head 8.04105 -0.671347 -8.88677
rclavicle 1.35174e-014 -3.81667e-014
rhumerus -14.5853 -31.3163 -18.1085
rradius 30.8839
rwrist 1.33534
rhand -23.0467 -5.42653
rfingers 7.12502
rthumb 3.39801 -35.3792
lclavicle 1.35174e-014 -3.81667e-014
lhumerus -21.8284 26.8034 20.3542
lradius 40.6151
lwrist 9.93671
lhand -20.2251 -4.66645
lfingers 7.12502
lthumb 6.12251 25.2251
rfemur -17.3335 -1.44802 9.86711
rtibia 33.3867
rfoot -11.2943 -20.4808
rtoes -0.85902
lfemur -13.5424 1.78001 -24.7432
ltibia 47.6947
lfoot -7.42404 7.59444
ltoes -17.5754
